<?xml version="1.0" encoding="iso-8859-1"?>
<!-- Generator: Adobe Illustrator 16.0.0, SVG Export Plug-In . SVG Version: 6.00 Build 0)  -->
<!DOCTYPE svg PUBLIC "-//W3C//DTD SVG 1.1//EN" "http://www.w3.org/Graphics/SVG/1.1/DTD/svg11.dtd">
<svg fill="#fff" version="1.1" id="Capa_1" xmlns="http://www.w3.org/2000/svg" xmlns:xlink="http://www.w3.org/1999/xlink" x="0px" y="0px"
	 width="930.3px" height="930.3px" viewBox="0 0 930.3 930.3" style="enable-background:new 0 0 930.3 930.3;" xml:space="preserve"
	>
<g>
	<g>
		<path d="M144,684.95c61.8,47.3,139,75.399,222.8,75.399c83.801,0,161-28.1,222.801-75.399c87.6-67,144-172.601,144-291.4
			c0-202.6-164.2-366.8-366.801-366.8C164.2,26.75,0,190.95,0,393.55C0,512.35,56.4,617.95,144,684.95z M366.8,335.75
			c31.9,0,57.801,25.9,57.801,57.8c0,31.9-25.9,57.8-57.801,57.8c-31.899,0-57.8-25.899-57.8-57.8
			C309,361.65,334.9,335.75,366.8,335.75z"/>
		<path d="M850.601,294.55c-44,0-79.601,35.6-79.601,79.601c0,30.5,17.101,57,42.3,70.3c-5,48.2-18.199,93.7-39.399,135.6
			c-22.3,44-53.601,84.5-92.9,120.4c-32.7,29.8-65.8,51.5-91.399,66v-44.5c-21.4,14.6-44.2,27-68.301,37.2
			C472.4,779.85,420.4,790.35,366.8,790.35c-53.6,0-105.5-10.5-154.5-31.199c-24.1-10.2-46.9-22.601-68.3-37.2v156.6
			c0,13.8,11.2,25,25,25h395.601c13.8,0,25-11.2,25-25v-33.1c29.3-13.9,82.8-43,136.5-91.4c46.1-41.6,83-89,109.5-140.8
			c26.3-51.5,42.399-107.4,47.899-166.6c27.601-12.5,46.8-40.301,46.8-72.5C930.2,330.15,894.601,294.55,850.601,294.55z"/>
	</g>
</g>
</svg>
