<?xml version="1.0" encoding="iso-8859-1"?>
<!-- Generator: Adobe Illustrator 16.0.0, SVG Export Plug-In . SVG Version: 6.00 Build 0)  -->
<!DOCTYPE svg PUBLIC "-//W3C//DTD SVG 1.1//EN" "http://www.w3.org/Graphics/SVG/1.1/DTD/svg11.dtd">
<svg version="1.1" id="Capa_1" xmlns="http://www.w3.org/2000/svg" xmlns:xlink="http://www.w3.org/1999/xlink" x="0px" y="0px"
	 width="984.8px" height="984.8px" viewBox="0 0 984.8 984.8" style="enable-background:new 0 0 984.8 984.8;" xml:space="preserve"
	>
<g>
	<g>
		<path d="M848.55,436.4c32.199-35.4,55-68.5,67.699-98.2c10.9-25.4,19.9-62.4,1.2-94.3c-9.7-16.6-25.2-29-45.899-36.8
			c-17-6.4-37.9-9.7-61.9-9.7c-44.9,0-102.4,11.4-166.9,33c-5.5-26.2-11.8-50.8-18.899-73.6c-14.3-45.7-31.3-82-50.601-108
			C556.749,26.5,529.35,0,492.35,0c-37,0-64.4,26.5-80.8,48.7c-19.301,26-36.301,62.4-50.601,108c-7.1,22.8-13.5,47.4-18.899,73.6
			c-64.5-21.6-122-33-166.9-33c-24,0-44.8,3.3-61.9,9.7c-20.7,7.8-36.1,20.2-45.9,36.8c-18.7,32-9.7,68.9,1.2,94.3
			c12.7,29.8,35.5,62.8,67.7,98.2c16.8,18.5,35.9,37.3,56.9,56.101c-21,18.8-40,37.6-56.9,56.1c-32.2,35.4-55,68.5-67.7,98.2
			c-10.9,25.399-19.9,62.399-1.2,94.3c9.7,16.6,25.2,29,45.9,36.8c17,6.4,37.9,9.7,61.9,9.7c44.9,0,102.4-11.4,166.9-33
			c5.5,26.2,11.8,50.8,18.899,73.6c14.3,45.7,31.3,82,50.601,108c16.399,22.2,43.8,48.7,80.8,48.7c37,0,64.399-26.5,80.799-48.7
			c19.3-26,36.3-62.399,50.6-108c7.101-22.8,13.5-47.399,18.9-73.6c64.5,21.6,122,33,166.9,33l0,0c24,0,44.8-3.3,61.899-9.7
			c20.7-7.8,36.101-20.2,45.9-36.8c18.7-32,9.7-68.9-1.2-94.3c-12.7-29.8-35.5-62.8-67.7-98.2c-16.7-18.4-35.8-37.2-56.8-56
			C812.649,473.7,831.749,454.9,848.55,436.4z M667.449,470.6c10,7.301,19.7,14.601,29.101,21.9c-9.4,7.3-19.101,14.7-29.101,21.9
			C667.55,507.2,667.55,477.8,667.449,470.6z M606.55,492.5c0,21.9-0.5,43.5-1.4,64.7c-17.8,11.5-36.2,22.899-55.1,33.899
			c-19.101,11.2-38.4,21.9-57.7,32c-19.3-10.1-38.5-20.8-57.7-32c-18.9-11-37.3-22.399-55.1-33.899c-0.9-21.2-1.4-42.8-1.4-64.7
			s0.5-43.5,1.4-64.7c17.8-11.5,36.199-22.899,55.1-33.899c19.1-11.2,38.4-21.9,57.7-32c19.299,10.1,38.5,20.8,57.7,32
			c18.899,11,37.3,22.399,55.1,33.899C606.05,449,606.55,470.6,606.55,492.5z M595.05,671.6c-11.801-4.899-23.7-10.1-35.601-15.5
			c7.101-4,14.3-8.1,21.4-12.3c6.3-3.7,12.6-7.5,18.899-11.2C598.35,645.8,596.85,658.8,595.05,671.6z M385.05,632.5
			c6.199,3.8,12.5,7.5,18.899,11.2c7.101,4.2,14.2,8.3,21.4,12.3c-12,5.5-23.8,10.6-35.601,15.5
			C387.95,658.8,386.35,645.8,385.05,632.5z M317.35,514.4c-10-7.301-19.7-14.601-29.1-21.9c9.4-7.3,19.1-14.7,29.1-21.9
			C317.15,477.8,317.15,507.2,317.35,514.4z M389.65,313.4c11.8,4.9,23.7,10.1,35.6,15.5c-7.1,4-14.3,8.1-21.399,12.3
			c-6.3,3.7-12.601,7.4-18.9,11.2C386.35,339.2,387.95,326.2,389.65,313.4z M580.85,341.3c-7.101-4.2-14.2-8.3-21.4-12.3
			c12-5.5,23.8-10.6,35.601-15.5c1.699,12.8,3.3,25.8,4.6,39C593.449,348.7,587.149,345,580.85,341.3z M419.15,175
			c12.1-38.6,26.4-69.7,41.4-90c11.399-15.4,22.699-24,31.8-24c9.099,0,20.399,8.5,31.799,24c15,20.2,29.3,51.3,41.4,90
			c7.399,23.5,13.8,49.3,19.3,76.8c-30.3,12.2-61.3,26.2-92.5,41.7c-31.2-15.5-62.2-29.5-92.5-41.7
			C405.35,224.2,411.75,198.5,419.15,175z M181.35,395.3c-27.2-29.9-46.8-58-56.7-81.2c-7.6-17.7-9.2-31.7-4.6-39.6
			c6-10.2,26.6-16.3,55.1-16.3c40.4,0,94.3,11.3,156.2,32.8c-4.8,32.8-8.5,67.2-10.8,102.8c-28.4,19.2-55.3,39-80.3,58.9
			C218.25,433.5,198.45,414.2,181.35,395.3z M175.05,726.7c-28.5,0-49.1-6.101-55.1-16.3c-4.6-7.801-2.9-21.9,4.6-39.601
			c9.9-23.2,29.5-51.2,56.7-81.2c17.2-18.899,36.9-38.199,58.8-57.399c25,19.899,51.9,39.7,80.3,58.899
			c2.399,35.601,6,70,10.8,102.801C269.35,715.4,215.45,726.7,175.05,726.7z M565.55,810c-12.101,38.6-26.4,69.7-41.4,90
			c-11.4,15.4-22.7,24-31.799,24c-9.101,0-20.4-8.5-31.8-24c-15-20.2-29.301-51.3-41.4-90c-7.4-23.5-13.8-49.3-19.3-76.8
			c30.3-12.2,61.3-26.2,92.5-41.7c31.2,15.5,62.2,29.5,92.5,41.7C579.449,760.8,572.949,786.5,565.55,810z M803.449,589.7
			c27.2,29.899,46.8,58,56.7,81.2c7.6,17.699,9.2,31.699,4.6,39.6c-6,10.2-26.6,16.3-55.1,16.3c-40.4,0-94.3-11.3-156.2-32.8
			c4.8-32.8,8.5-67.2,10.8-102.8c28.4-19.2,55.301-39,80.301-58.9C766.449,551.5,786.249,570.8,803.449,589.7z M744.649,452.8
			c-25-19.899-51.9-39.7-80.3-58.899c-2.4-35.601-6-70-10.8-102.8c61.899-21.5,115.8-32.8,156.199-32.8
			c28.5,0,49.101,6.1,55.101,16.3c4.6,7.8,2.899,21.9-4.601,39.6c-9.899,23.2-29.5,51.2-56.699,81.2
			C786.249,414.2,766.449,433.5,744.649,452.8z"/>
		<circle cx="492.35" cy="492.5" r="70"/>
	</g>
</g>
</svg>
